# xmcd
#
# Track frame offsets:
#	150
#	20819
#	32951
#	48413
#	74403
#	87029
#	104245
#	119242
#
# Disc length: 1863 seconds
#
# Revision: 0
# Processed by: cddbd v1.5.2PL0 Copyright (c) Steve Scherf et al.
# Submitted via: EasyCDDAExtractor 10.1.0.1
#
DISCID=79074508
DTITLE=Howlin' Wolf - Message To The Young
DYEAR=1971
DGENRE=Blues
TTITLE0=If I Were A Bird
TTITLE1=I Smell A Rat
TTITLE2=Miss James
TTITLE3=Message To The Young
TTITLE4=She's Looking Good
TTITLE5=Just As Long
TTITLE6=Romance Without Finance
TTITLE7=Turn Me On
EXTD=
EXTT0=
EXTT1=
EXTT2=
EXTT3=
EXTT4=
EXTT5=
EXTT6=
EXTT7=
PLAYORDER=
